<svg preserveAspectRatio="none" width="100%" height="100%" overflow="visible" style="display: block;" viewBox="0 0 73.3798 57.5116" fill="none" xmlns="http://www.w3.org/2000/svg">
<g id="Group 639">
<g id="Star 33" filter="url(#filter0_d_4300_5544)">
<path d="M8.10749 18.1471C8.06279 17.6843 8.51205 17.3304 8.95161 17.4822L13.8579 19.1772C14.0092 19.2295 14.1745 19.2231 14.3212 19.1592L19.081 17.0881C19.5075 16.9025 19.9829 17.2204 19.9743 17.6854L19.8783 22.8754C19.8754 23.0354 19.9326 23.1906 20.0387 23.3105L23.4793 27.1973C23.7875 27.5455 23.6321 28.0959 23.1872 28.2314L18.2216 29.7439C18.0685 29.7906 17.9385 29.8929 17.8574 30.0308L15.224 34.5042C14.9881 34.9049 14.4166 34.9272 14.1503 34.546L11.1773 30.2908C11.0856 30.1596 10.9481 30.0676 10.7919 30.033L5.72371 28.9109C5.26966 28.8104 5.07192 28.2737 5.35217 27.9026L8.48039 23.7602C8.57682 23.6325 8.62179 23.4733 8.60641 23.314L8.10749 18.1471Z" fill="var(--fill-0, #FFDD63)"/>
</g>
<g id="Star 34" filter="url(#filter1_d_4300_5544)">
<path d="M64.337 18.226C64.7919 18.0454 65.2725 18.4225 65.2052 18.9073L64.4941 24.0316C64.4695 24.2092 64.5206 24.3889 64.635 24.5269L67.937 28.5095C68.2494 28.8863 68.0392 29.4599 67.5574 29.5458L62.4641 30.4529C62.2876 30.4844 62.1325 30.5885 62.0366 30.74L59.2692 35.1111C59.0075 35.5246 58.3969 35.502 58.1664 35.0703L55.7298 30.5066C55.6453 30.3485 55.4983 30.2331 55.3246 30.1887L50.3123 28.9076C49.8382 28.7864 49.671 28.1987 50.0103 27.8461L53.5977 24.1184C53.722 23.9893 53.7863 23.8138 53.7748 23.6349L53.4444 18.472C53.4131 17.9836 53.9203 17.643 54.3606 17.8568L59.0143 20.1166C59.1756 20.195 59.3624 20.2019 59.529 20.1357L64.337 18.226Z" fill="var(--fill-0, #C3C3C3)"/>
</g>
<g id="Star 35" filter="url(#filter2_d_4300_5544)">
<path d="M36.3915 0.947358C36.6378 0.524462 37.2488 0.524462 37.4951 0.947359L41.5133 7.8461C41.6035 8.00102 41.7547 8.11087 41.9299 8.14881L49.7327 9.83847C50.211 9.94205 50.3998 10.5231 50.0737 10.888L44.7543 16.8414C44.6348 16.975 44.5771 17.1528 44.5951 17.3311L45.3994 25.2742C45.4487 25.7611 44.9544 26.1202 44.5065 25.9228L37.2008 22.7034C37.0368 22.6311 36.8499 22.6311 36.6858 22.7034L29.3801 25.9228C28.9322 26.1202 28.438 25.7611 28.4873 25.2742L29.2915 17.3311C29.3096 17.1528 29.2518 16.975 29.1323 16.8414L23.8129 10.888C23.4868 10.5231 23.6756 9.94205 24.154 9.83847L31.9567 8.14881C32.1319 8.11087 32.2831 8.00102 32.3734 7.8461L36.3915 0.947358Z" fill="var(--fill-0, #FFDD63)"/>
</g>
<g id="replay">
<mask id="mask0_4300_5544" style="mask-type:alpha" maskUnits="userSpaceOnUse" x="21" y="28" width="30" height="30">
<rect id="Bounding box" x="21.7434" y="28.4365" width="29.0752" height="29.0752" fill="var(--fill-0, #D9D9D9)"/>
</mask>
<g mask="url(#mask0_4300_5544)">
<path id="replay_2" d="M36.282 54.7856C34.8687 54.7856 33.5448 54.5171 32.3106 53.98C31.0761 53.4429 30.0019 52.7174 29.0881 51.8033C28.174 50.8895 27.4484 49.8153 26.9114 48.5808C26.3743 47.3465 26.1057 46.0227 26.1057 44.6093C26.1057 44.3004 26.2096 44.0414 26.4174 43.8325C26.6252 43.6235 26.8826 43.519 27.1897 43.519C27.4968 43.519 27.7564 43.6235 27.9684 43.8325C28.1804 44.0414 28.2864 44.3004 28.2864 44.6093C28.2864 46.8101 29.0688 48.693 30.6336 50.2578C32.1984 51.8226 34.0812 52.605 36.282 52.605C38.4829 52.605 40.3657 51.8226 41.9305 50.2578C43.4953 48.693 44.2777 46.8101 44.2777 44.6093C44.2777 42.4085 43.4953 40.5257 41.9305 38.9609C40.3657 37.3961 38.4789 36.6137 36.2702 36.6137H36.1003L36.8878 37.4011C37.1099 37.6232 37.2209 37.8806 37.2209 38.1734C37.2209 38.4662 37.1147 38.7236 36.9023 38.9457C36.6705 39.1678 36.4082 39.2789 36.1155 39.2789C35.8227 39.2789 35.5653 39.1678 35.3432 38.9457L32.6779 36.2805C32.4558 36.0657 32.3448 35.8151 32.3448 35.5288C32.3448 35.2425 32.4558 34.9883 32.6779 34.7662L35.3432 32.1009C35.5653 31.8788 35.8177 31.7678 36.1003 31.7678C36.383 31.7678 36.6402 31.8788 36.872 32.1009C37.0844 32.323 37.1906 32.5805 37.1906 32.8733C37.1906 33.166 37.0796 33.4235 36.8575 33.6456L36.07 34.433H36.282C37.6954 34.433 39.0193 34.7016 40.2535 35.2386C41.488 35.7757 42.5622 36.5013 43.476 37.4153C44.3901 38.3292 45.1156 39.4034 45.6527 40.6378C46.1898 41.8721 46.4584 43.1959 46.4584 44.6093C46.4584 46.0227 46.1898 47.3465 45.6527 48.5808C45.1156 49.8153 44.3901 50.8895 43.476 51.8033C42.5622 52.7174 41.488 53.4429 40.2535 53.98C39.0193 54.5171 37.6954 54.7856 36.282 54.7856Z" fill="var(--fill-0, white)"/>
</g>
</g>
</g>
<defs>
<filter id="filter0_d_4300_5544" x="4.58413" y="17.0343" width="20.9716" height="21.6158" filterUnits="userSpaceOnUse" color-interpolation-filters="sRGB">
<feFlood flood-opacity="0" result="BackgroundImageFix"/>
<feColorMatrix in="SourceAlpha" type="matrix" values="0 0 0 0 0 0 0 0 0 0 0 0 0 0 0 0 0 0 127 0" result="hardAlpha"/>
<feOffset dx="0.638559" dy="2.55424"/>
<feGaussianBlur stdDeviation="0.638559"/>
<feComposite in2="hardAlpha" operator="out"/>
<feColorMatrix type="matrix" values="0 0 0 0 0 0 0 0 0 0 0 0 0 0 0 0 0 0 0.6 0"/>
<feBlend mode="normal" in2="BackgroundImageFix" result="effect1_dropShadow_4300_5544"/>
<feBlend mode="normal" in="SourceGraphic" in2="effect1_dropShadow_4300_5544" result="shape"/>
</filter>
<filter id="filter1_d_4300_5544" x="49.1929" y="17.7917" width="20.8073" height="21.4477" filterUnits="userSpaceOnUse" color-interpolation-filters="sRGB">
<feFlood flood-opacity="0" result="BackgroundImageFix"/>
<feColorMatrix in="SourceAlpha" type="matrix" values="0 0 0 0 0 0 0 0 0 0 0 0 0 0 0 0 0 0 127 0" result="hardAlpha"/>
<feOffset dx="0.638559" dy="2.55424"/>
<feGaussianBlur stdDeviation="0.638559"/>
<feComposite in2="hardAlpha" operator="out"/>
<feColorMatrix type="matrix" values="0 0 0 0 0 0 0 0 0 0 0 0 0 0 0 0 0 0 0.6 0"/>
<feBlend mode="normal" in2="BackgroundImageFix" result="effect1_dropShadow_4300_5544"/>
<feBlend mode="normal" in="SourceGraphic" in2="effect1_dropShadow_4300_5544" result="shape"/>
</filter>
<filter id="filter2_d_4300_5544" x="23.0115" y="0.630186" width="29.1408" height="29.1792" filterUnits="userSpaceOnUse" color-interpolation-filters="sRGB">
<feFlood flood-opacity="0" result="BackgroundImageFix"/>
<feColorMatrix in="SourceAlpha" type="matrix" values="0 0 0 0 0 0 0 0 0 0 0 0 0 0 0 0 0 0 127 0" result="hardAlpha"/>
<feOffset dx="0.638559" dy="2.55424"/>
<feGaussianBlur stdDeviation="0.638559"/>
<feComposite in2="hardAlpha" operator="out"/>
<feColorMatrix type="matrix" values="0 0 0 0 0 0 0 0 0 0 0 0 0 0 0 0 0 0 0.6 0"/>
<feBlend mode="normal" in2="BackgroundImageFix" result="effect1_dropShadow_4300_5544"/>
<feBlend mode="normal" in="SourceGraphic" in2="effect1_dropShadow_4300_5544" result="shape"/>
</filter>
</defs>
</svg>
