<svg preserveAspectRatio="none" width="100%" height="100%" overflow="visible" style="display: block;" viewBox="0 0 29.3333 20.911" fill="none" xmlns="http://www.w3.org/2000/svg">
<path id="person_add" d="M22.889 8.68867H19.7777C19.463 8.68867 19.1991 8.58189 18.986 8.36833C18.7731 8.15456 18.6667 7.88967 18.6667 7.57367C18.6667 7.25789 18.7731 6.99445 18.986 6.78333C19.1991 6.57222 19.463 6.46667 19.7777 6.46667H22.889V3.35533C22.889 3.04067 22.9958 2.77678 23.2093 2.56367C23.4231 2.35078 23.688 2.24433 24.004 2.24433C24.3198 2.24433 24.5832 2.35078 24.7943 2.56367C25.0054 2.77678 25.111 3.04067 25.111 3.35533V6.46667H28.2223C28.537 6.46667 28.8009 6.57345 29.014 6.787C29.2269 7.00078 29.3333 7.26567 29.3333 7.58167C29.3333 7.89745 29.2269 8.16089 29.014 8.372C28.8009 8.58311 28.537 8.68867 28.2223 8.68867H25.111V11.8C25.111 12.1147 25.0042 12.3786 24.7907 12.5917C24.5769 12.8046 24.312 12.911 23.996 12.911C23.6802 12.911 23.4168 12.8046 23.2057 12.5917C22.9946 12.3786 22.889 12.1147 22.889 11.8V8.68867ZM10.6667 10.222C9.2 10.222 7.98144 9.73689 7.011 8.76667C6.04078 7.79622 5.55567 6.57767 5.55567 5.111C5.55567 3.64433 6.04078 2.42578 7.011 1.45533C7.98144 0.485112 9.2 0 10.6667 0C12.1333 0 13.3519 0.485112 14.3223 1.45533C15.2926 2.42578 15.7777 3.64433 15.7777 5.111C15.7777 6.57767 15.2926 7.79622 14.3223 8.76667C13.3519 9.73689 12.1333 10.222 10.6667 10.222ZM0 18.6887V17.5777C0 16.8072 0.194444 16.1053 0.583333 15.472C0.972222 14.8387 1.51856 14.3628 2.22233 14.0443C3.79256 13.3259 5.24689 12.8092 6.58533 12.4943C7.92356 12.1794 9.28278 12.022 10.663 12.022C12.0432 12.022 13.4 12.1794 14.7333 12.4943C16.0667 12.8092 17.5186 13.3259 19.089 14.0443C19.7926 14.3777 20.3426 14.8573 20.739 15.4833C21.1352 16.1091 21.3333 16.8072 21.3333 17.5777V18.6887C21.3333 19.2998 21.1158 19.823 20.6807 20.2583C20.2453 20.6934 19.7221 20.911 19.111 20.911H2.22233C1.61122 20.911 1.088 20.6934 0.652667 20.2583C0.217556 19.823 0 19.2998 0 18.6887ZM2.22233 18.6887H19.111V17.5777C19.111 17.2592 19.024 16.9592 18.85 16.6777C18.676 16.3961 18.4446 16.185 18.1557 16.0443C16.7037 15.3554 15.411 14.8832 14.2777 14.6277C13.1443 14.3721 11.9407 14.2443 10.6667 14.2443C9.39267 14.2443 8.18522 14.3721 7.04433 14.6277C5.90367 14.8832 4.60744 15.3554 3.15567 16.0443C2.86678 16.185 2.639 16.3961 2.47233 16.6777C2.30567 16.9592 2.22233 17.2592 2.22233 17.5777V18.6887ZM10.6667 8C11.4889 8 12.1759 7.724 12.7277 7.172C13.2797 6.62022 13.5557 5.93322 13.5557 5.111C13.5557 4.28878 13.2797 3.60178 12.7277 3.05C12.1759 2.498 11.4889 2.222 10.6667 2.222C9.84445 2.222 9.15745 2.498 8.60567 3.05C8.05367 3.60178 7.77767 4.28878 7.77767 5.111C7.77767 5.93322 8.05367 6.62022 8.60567 7.172C9.15745 7.724 9.84445 8 10.6667 8Z" fill="var(--fill-0, #1D1D1D)"/>
</svg>
