<svg preserveAspectRatio="none" width="100%" height="100%" overflow="visible" style="display: block;" viewBox="0 0 86.626 89.6711" fill="none" xmlns="http://www.w3.org/2000/svg">
<g id="Group">
<path id="Vector" d="M86.6158 62.1984C85.7353 63.3223 85.4388 63.3931 84.1822 62.7603C77.5009 59.402 71.2488 55.3711 65.3684 50.7562C61.1207 47.4199 56.9261 44.0262 53.1032 40.19C50.1652 37.2387 47.4175 34.1149 44.6432 31.0176C40.5857 26.4912 37.046 21.5975 33.8602 16.4339C33.108 15.2127 32.3293 14.0047 31.5107 12.7083C31.3603 12.9694 31.2851 13.0711 31.2364 13.1862C30.7408 14.4251 30.3028 15.6905 29.7497 16.9029C26.7675 23.4603 22.3959 28.7212 15.7942 31.9247C13.8385 32.8716 11.8253 33.699 9.9448 34.8096C9.42711 35.1149 9.37401 35.2742 9.78551 35.7388C10.3607 36.3848 10.8253 37.1281 11.3297 37.8361C14.1748 41.836 17.2057 45.6899 20.5862 49.2562C24.4578 53.3402 28.4931 57.256 32.8514 60.8268C38.4309 65.4019 44.2317 69.6496 50.6608 72.9858C57.4305 76.499 64.4348 79.4326 71.6692 81.8352C74.4656 82.7643 77.262 83.6891 80.1469 84.3174C81.8061 84.6758 82.0982 85.4236 81.3371 86.9324" fill="var(--fill-0, #E3AD56)"/>
<path id="Vector_2" d="M79.4334 89.6711C80.0131 88.7153 80.8272 87.9233 81.3361 86.9189C82.1015 85.4101 81.8051 84.6667 80.1458 84.3039C77.2565 83.6756 74.4645 82.7508 71.6681 81.8217C64.4338 79.4191 57.4295 76.4855 50.6597 72.9723C44.2307 69.6361 38.4299 65.3884 32.8504 60.8133C28.492 57.2426 24.4567 53.3267 20.5851 49.2427C17.2091 45.6808 14.1782 41.8269 11.3287 37.8226C10.8243 37.1147 10.3553 36.3713 9.78448 35.7253C9.37298 35.2607 9.42608 35.1058 9.94377 34.7961C11.8198 33.6855 13.8375 32.8581 15.7932 31.9112C22.3948 28.7078 26.7709 23.4468 29.7487 16.8894C30.3018 15.6771 30.7398 14.4116 31.2354 13.1727C31.2796 13.0577 31.3548 12.9603 31.5097 12.6948C32.3282 13.9913 33.107 15.1992 33.8592 16.4204C37.045 21.584 40.5847 26.4777 44.6421 31.0042C47.4208 34.1059 50.1642 37.2253 53.1022 40.1765C56.4428 43.5304 59.4427 45.9065 65.3674 50.7427C65.3674 50.7427 71.6725 55.8886 77.9379 59.8266C78.022 59.8797 78.637 60.2204 79.7034 60.8221C81.7122 61.9548 81.721 61.9637 82.044 62.1407C84.451 63.4592 85.6678 64.1097 86.2121 63.7336C86.42 63.592 86.6944 63.2336 86.6103 62.1849C82.2918 60.2646 78.1326 58.0611 74.1769 55.4682C69.5266 52.4196 65.1461 49.0259 61.0002 45.3136C57.4118 42.0969 54.0092 38.6987 50.8544 35.066C47.5359 31.2475 44.5006 27.2034 41.6466 23.0309C40.3148 21.0885 38.9343 19.177 37.8547 17.0797C36.8016 15.1638 35.7441 13.2435 34.691 11.3276C32.5052 8.07103 29.7929 5.33657 26.4744 3.23927C23.1116 1.11542 19.3374 0.345531 15.4436 0.0225294C14.4525 -0.0615396 13.4658 0.0977474 12.5101 0.394201C13.2534 2.53132 14.2003 4.58438 15.156 6.63301C16.3773 9.24357 17.656 11.832 18.8551 14.4558C19.2046 15.2257 19.7356 15.9691 19.6117 16.9071C19.5144 17.6726 18.8595 18.0708 18.1471 17.7921C17.5719 17.5664 17.1693 17.1372 16.7799 16.6947C15.6605 15.4116 14.6384 14.0355 13.426 12.8497C10.926 10.394 8.73583 7.63299 6.04119 5.3764C5.81996 5.19056 5.78899 4.9649 5.78899 4.7127C-0.0692952 11.0356 -1.10468 18.4204 1.0059 26.491C2.22711 31.1546 4.25805 35.4642 6.66065 39.6235C11.8508 48.6056 18.9701 55.9107 26.731 62.6318C34.8282 69.6405 43.7085 75.5076 53.3145 80.2509C58.5312 82.8261 65.416 85.5738 73.7345 87.7463" fill="var(--fill-0, #9A662F)"/>
</g>
</svg>
